# xmcd CD database file
#
# Track frame offsets:
#	150
#	23150
#	47386
#	67623
#	84874
#	96603
#	109889
#	124039
#	143681
#	159959
#	172128
#	191294
#	205615
#	226344
#
# Disc length: 3205 seconds
#
# Revision: 0
# Processed by: cddbd v1.5.2PL0 Copyright (c) Steve Scherf et al.
# Submitted via: CDex 1.51
#
DISCID=a80c830e
DTITLE=Relax Music Voyage - Tantric Massage
DYEAR=2011
DGENRE=New Age
TTITLE0=Echo Soul
TTITLE1=Moon Piano Light
TTITLE2=In A Blue Room With You
TTITLE3=Loocking For Your Essence
TTITLE4=Blue Soft
TTITLE5=New Celestial Harmony
TTITLE6=Beyond The Sea Part Two
TTITLE7=Summer Coloured Day
TTITLE8=Escape Lane Of The Moon
TTITLE9=Blue  Immersion
TTITLE10=Old Horizon Cloudy
TTITLE11=The Last Moment
TTITLE12=The Green Lake Of Ireland
TTITLE13=Temporary Thought
EXTD=YEAR: 2011
EXTT0=
EXTT1=
EXTT2=
EXTT3=
EXTT4=
EXTT5=
EXTT6=
EXTT7=
EXTT8=
EXTT9=
EXTT10=
EXTT11=
EXTT12=
EXTT13=
PLAYORDER=
